<svg xmlns="http://www.w3.org/2000/svg" viewBox="0 0 512 512" role="img" aria-labelledby="title desc">
  <title id="title">Hookoon H monogram</title>
  <desc id="desc">A warm white editorial serif H on a rounded ink-black square.</desc>
  <rect x="8" y="8" width="496" height="496" rx="112" fill="#1F1F22"/>
  <rect x="16" y="16" width="480" height="480" rx="104" fill="none" stroke="#4B4946" stroke-width="4"/>
  <path
    fill="#F4F1E9"
    transform="translate(85.6 396) scale(.2 -.2)"
    d="M383 715L1248 715L1248 611L383 611ZM562 167Q562 145 575 131Q588 117 612 110L669 97Q711 84 711 46Q711 25 696.5 12.5Q682 0 651 0L164 0Q133 0 118.5 12.5Q104 25 104 46Q104 84 146 97L203 110Q228 117 240.5 131Q253 145 253 167L253 1233Q253 1255 240.5 1269Q228 1283 203 1290L146 1303Q104 1316 104 1354Q104 1376 118.5 1388Q133 1400 164 1400L651 1400Q682 1400 696.5 1388Q711 1376 711 1354Q711 1316 669 1303L612 1290Q588 1283 575 1269Q562 1255 562 1233ZM1451 167Q1451 145 1464 131Q1477 117 1501 110L1558 97Q1600 84 1600 46Q1600 25 1585.5 12.5Q1571 0 1540 0L1053 0Q1022 0 1007 12.5Q992 25 992 46Q992 84 1034 97L1091 110Q1116 117 1128.5 131Q1141 145 1141 167L1141 1233Q1141 1255 1128.5 1269Q1116 1283 1091 1290L1034 1303Q992 1316 992 1354Q992 1376 1007 1388Q1022 1400 1053 1400L1540 1400Q1571 1400 1585.5 1388Q1600 1376 1600 1354Q1600 1316 1558 1303L1501 1290Q1477 1283 1464 1269Q1451 1255 1451 1233Z"
  />
</svg>
